<svg xmlns="http://www.w3.org/2000/svg" xmlns:xlink="http://www.w3.org/1999/xlink" width="2000" zoomAndPan="magnify" viewBox="0 0 1500 1499.999933" height="2000" preserveAspectRatio="xMidYMid meet" version="1.0"><defs><g/><clipPath id="0405ea733e"><rect x="0" width="781" y="0" height="1021"/></clipPath><clipPath id="e124de88eb"><path d="M 278 649 L 281 649 L 281 655 L 278 655 Z M 278 649 " clip-rule="nonzero"/></clipPath><clipPath id="c197702a3e"><path d="M 19.972656 214.667969 L 1382.253906 -99.332031 L 1528.808594 536.496094 L 166.527344 850.496094 Z M 19.972656 214.667969 " clip-rule="nonzero"/></clipPath><clipPath id="9dcef3fee6"><path d="M 19.972656 214.667969 L 1382.253906 -99.332031 L 1528.808594 536.496094 L 166.527344 850.496094 Z M 19.972656 214.667969 " clip-rule="nonzero"/></clipPath><clipPath id="ca1df0b330"><path d="M 279 649 L 305 649 L 305 657 L 279 657 Z M 279 649 " clip-rule="nonzero"/></clipPath><clipPath id="688e2ae758"><path d="M 19.972656 214.667969 L 1382.253906 -99.332031 L 1528.808594 536.496094 L 166.527344 850.496094 Z M 19.972656 214.667969 " clip-rule="nonzero"/></clipPath><clipPath id="acb66bf2f4"><path d="M 19.972656 214.667969 L 1382.253906 -99.332031 L 1528.808594 536.496094 L 166.527344 850.496094 Z M 19.972656 214.667969 " clip-rule="nonzero"/></clipPath><clipPath id="8d075059de"><path d="M 283 702 L 330 702 L 330 721 L 283 721 Z M 283 702 " clip-rule="nonzero"/></clipPath><clipPath id="327188e958"><path d="M 19.972656 214.667969 L 1382.253906 -99.332031 L 1528.808594 536.496094 L 166.527344 850.496094 Z M 19.972656 214.667969 " clip-rule="nonzero"/></clipPath><clipPath id="9fd473b5ed"><path d="M 19.972656 214.667969 L 1382.253906 -99.332031 L 1528.808594 536.496094 L 166.527344 850.496094 Z M 19.972656 214.667969 " clip-rule="nonzero"/></clipPath><clipPath id="93df639fd7"><path d="M 208 333 L 263 333 L 263 453 L 208 453 Z M 208 333 " clip-rule="nonzero"/></clipPath><clipPath id="a281d573a3"><path d="M 19.972656 214.667969 L 1382.253906 -99.332031 L 1528.808594 536.496094 L 166.527344 850.496094 Z M 19.972656 214.667969 " clip-rule="nonzero"/></clipPath><clipPath id="943bd64978"><path d="M 19.972656 214.667969 L 1382.253906 -99.332031 L 1528.808594 536.496094 L 166.527344 850.496094 Z M 19.972656 214.667969 " clip-rule="nonzero"/></clipPath><clipPath id="a4aa3e1aed"><path d="M 266 649 L 337 649 L 337 719 L 266 719 Z M 266 649 " clip-rule="nonzero"/></clipPath><clipPath id="03042ed9d2"><path d="M 19.972656 214.667969 L 1382.253906 -99.332031 L 1528.808594 536.496094 L 166.527344 850.496094 Z M 19.972656 214.667969 " clip-rule="nonzero"/></clipPath><clipPath id="e4212b1cff"><path d="M 19.972656 214.667969 L 1382.253906 -99.332031 L 1528.808594 536.496094 L 166.527344 850.496094 Z M 19.972656 214.667969 " clip-rule="nonzero"/></clipPath><clipPath id="2b492146bf"><path d="M 276 648 L 281 648 L 281 655 L 276 655 Z M 276 648 " clip-rule="nonzero"/></clipPath><clipPath id="b833c97408"><path d="M 19.972656 214.667969 L 1382.253906 -99.332031 L 1528.808594 536.496094 L 166.527344 850.496094 Z M 19.972656 214.667969 " clip-rule="nonzero"/></clipPath><clipPath id="4766a1fb06"><path d="M 19.972656 214.667969 L 1382.253906 -99.332031 L 1528.808594 536.496094 L 166.527344 850.496094 Z M 19.972656 214.667969 " clip-rule="nonzero"/></clipPath><clipPath id="2d94530e75"><path d="M 278 702 L 372 702 L 372 813 L 278 813 Z M 278 702 " clip-rule="nonzero"/></clipPath><clipPath id="a3a82a495f"><path d="M 19.972656 214.667969 L 1382.253906 -99.332031 L 1528.808594 536.496094 L 166.527344 850.496094 Z M 19.972656 214.667969 " clip-rule="nonzero"/></clipPath><clipPath id="4920be871f"><path d="M 19.972656 214.667969 L 1382.253906 -99.332031 L 1528.808594 536.496094 L 166.527344 850.496094 Z M 19.972656 214.667969 " clip-rule="nonzero"/></clipPath><clipPath id="ea9e2b026c"><path d="M 210 335 L 305 335 L 305 656 L 210 656 Z M 210 335 " clip-rule="nonzero"/></clipPath><clipPath id="2426a4ba80"><path d="M 19.972656 214.667969 L 1382.253906 -99.332031 L 1528.808594 536.496094 L 166.527344 850.496094 Z M 19.972656 214.667969 " clip-rule="nonzero"/></clipPath><clipPath id="f19e6523c2"><path d="M 19.972656 214.667969 L 1382.253906 -99.332031 L 1528.808594 536.496094 L 166.527344 850.496094 Z M 19.972656 214.667969 " clip-rule="nonzero"/></clipPath><clipPath id="f9a6f1cb00"><path d="M 70 55 L 1432 55 L 1432 731 L 70 731 Z M 70 55 " clip-rule="nonzero"/></clipPath><clipPath id="1acfd23a5f"><path d="M 19.972656 214.667969 L 1382.253906 -99.332031 L 1528.808594 536.496094 L 166.527344 850.496094 Z M 19.972656 214.667969 " clip-rule="nonzero"/></clipPath><clipPath id="ca2ace913e"><path d="M 19.972656 214.667969 L 1382.253906 -99.332031 L 1528.808594 536.496094 L 166.527344 850.496094 Z M 19.972656 214.667969 " clip-rule="nonzero"/></clipPath></defs><rect x="-150" width="1800" fill="#ffffff" y="-149.999993" height="1799.99992" fill-opacity="1"/><rect x="-150" width="1800" fill="#ffffff" y="-149.999993" height="1799.99992" fill-opacity="1"/><g transform="matrix(1, 0, 0, 1, 384, 368)"><g clip-path="url(#0405ea733e)"><g fill="#ac2d16" fill-opacity="1"><g transform="translate(0.0727444, 822.993042)"><g><path d="M 505.984375 -644.640625 L 762.703125 -644.640625 L 531.265625 -379.484375 L 767.390625 0 L 522.828125 0 L 388.859375 -236.125 L 276.421875 -144.296875 L 276.421875 0 L 69.34375 0 L 69.34375 -644.640625 L 276.421875 -644.640625 L 276.421875 -369.171875 Z M 505.984375 -644.640625 "/></g></g></g></g></g><g clip-path="url(#e124de88eb)"><g clip-path="url(#c197702a3e)"><g clip-path="url(#9dcef3fee6)"><path fill="#231f1d" d="M 278.148438 650.214844 C 278.242188 650.625 278.429688 651.03125 278.578125 651.429688 C 278.757812 651.886719 278.941406 652.351562 279.125 652.824219 C 279.300781 653.253906 279.847656 654.984375 280.75 654.421875 C 281.292969 654.089844 280.800781 652.925781 280.691406 652.539062 C 280.375 651.558594 279.875 650.285156 278.960938 649.746094 C 278.675781 649.566406 278.101562 650.019531 278.148438 650.214844 Z M 278.148438 650.214844 " fill-opacity="1" fill-rule="evenodd"/></g></g></g><g clip-path="url(#ca1df0b330)"><g clip-path="url(#688e2ae758)"><g clip-path="url(#acb66bf2f4)"><path fill="#231f1d" d="M 279.011719 654.765625 C 279.222656 655.109375 279.804688 655.371094 280.117188 655.503906 C 281.792969 656.171875 283.519531 656.484375 285.304688 656.414062 C 287.78125 656.328125 289.691406 655.175781 291.925781 654.359375 C 293.273438 653.863281 294.761719 653.707031 296.136719 653.332031 C 297.394531 653.003906 298.566406 652.472656 299.820312 652.128906 C 300.972656 651.824219 302.140625 651.59375 303.261719 651.164062 C 303.65625 651.019531 304.191406 650.800781 304.113281 650.3125 C 303.898438 648.804688 300.972656 649.871094 300.417969 650 C 299.5625 650.183594 298.703125 650.363281 297.839844 650.539062 C 295.53125 651.03125 293.242188 651.765625 290.910156 652.152344 C 288.953125 652.457031 286.96875 652.480469 285.011719 652.875 C 283.578125 653.167969 278.957031 654.703125 279.011719 654.765625 Z M 279.011719 654.765625 " fill-opacity="1" fill-rule="evenodd"/></g></g></g><g clip-path="url(#8d075059de)"><g clip-path="url(#327188e958)"><g clip-path="url(#9fd473b5ed)"><path fill="#231f1d" d="M 283.652344 713.261719 C 283.820312 713.992188 283.691406 714.660156 284.152344 715.359375 C 285.953125 718.117188 291.671875 720.855469 294.890625 720.976562 C 296.007812 721.019531 297.308594 720.792969 298.371094 720.605469 C 300.71875 720.195312 303 720.964844 305.359375 720.628906 C 306.777344 720.414062 307.898438 719.667969 309.234375 719.359375 C 310.878906 719 312.625 718.917969 314.199219 718.328125 C 315.078125 717.996094 315.457031 716.875 316.128906 716.605469 C 319.355469 715.300781 323.144531 714.632812 326.074219 712.757812 C 326.203125 712.671875 325.769531 712.734375 325.621094 712.75 C 325.523438 712.734375 324.269531 712.589844 324.3125 712.375 C 324.476562 711.773438 324.949219 711.308594 325.28125 710.78125 C 325.804688 709.964844 326.335938 709.167969 326.859375 708.351562 C 327.414062 707.492188 330 703.890625 329.785156 702.964844 C 329.566406 701.925781 327.804688 702.597656 327.125 702.660156 C 324.019531 702.867188 321.1875 703.371094 318.105469 704.082031 C 314.542969 704.921875 310.992188 705.15625 307.4375 705.863281 C 303.679688 706.578125 299.996094 707.691406 296.222656 708.261719 C 292.9375 708.753906 289.347656 707.6875 286.132812 708.464844 C 285.777344 708.566406 285.738281 709.945312 285.675781 710.242188 C 285.523438 711.046875 284.460938 712.867188 283.738281 713.390625 " fill-opacity="1" fill-rule="evenodd"/></g></g></g><g clip-path="url(#93df639fd7)"><g clip-path="url(#a281d573a3)"><g clip-path="url(#943bd64978)"><path fill="#231f1d" d="M 232.722656 452.890625 C 230.449219 451.988281 230.527344 448.574219 231.046875 446.761719 C 231.097656 446.601562 231.171875 446.433594 231.269531 446.261719 C 227.488281 445.332031 224.078125 443.882812 222.730469 441.304688 C 222.160156 440.214844 221.84375 439.085938 221.550781 437.894531 C 221.328125 437.007812 220.925781 435.917969 220.898438 434.984375 C 220.882812 434.011719 221.363281 433.09375 221.207031 432.082031 L 222.113281 432.601562 C 217.648438 424.621094 214.082031 412.902344 215.007812 403.640625 C 213.019531 400.796875 213.824219 394.921875 213.910156 392.535156 C 213.988281 389.777344 214.683594 386.519531 214.160156 383.75 C 213.804688 381.898438 212.796875 379.953125 212.355469 378.121094 C 210.148438 368.960938 206.777344 355.472656 209.261719 346.058594 C 210.484375 341.421875 214.097656 338.449219 218.148438 336.238281 C 219.449219 335.523438 220.847656 334.75 222.308594 334.414062 C 222.738281 334.316406 224.125 333.734375 224.519531 333.90625 C 224.558594 333.914062 225.570312 334.152344 225.667969 334.167969 C 226.683594 334.25 227.464844 334.296875 228.476562 334.703125 C 231.488281 335.867188 234.492188 337.914062 237.246094 339.589844 C 246.300781 345.085938 251.964844 352.472656 254 362.929688 C 254.765625 366.824219 255.328125 370.730469 254.910156 374.695312 C 254.289062 380.46875 251.113281 387.699219 246.570312 392.105469 C 246.601562 392.125 246.628906 392.148438 246.664062 392.179688 C 254.804688 398.917969 254.640625 400.15625 256.933594 410.105469 C 258.859375 418.464844 261.773438 427.121094 262.25 435.703125 C 262.445312 439.074219 262.324219 443.589844 260.257812 446.433594 C 260.199219 446.507812 260.136719 446.585938 260.066406 446.664062 C 260.828125 447.125 261.492188 447.722656 261.929688 448.5625 C 262.765625 450.152344 260.414062 452.648438 258.925781 452.558594 C 255.121094 452.328125 251.65625 450.984375 247.65625 451.140625 C 245.289062 451.214844 243.128906 452.5 240.6875 452.667969 C 237.972656 452.863281 235.34375 452.210938 232.722656 452.890625 Z M 232.476562 452.964844 C 232.5625 452.949219 232.640625 452.921875 232.722656 452.890625 C 232.835938 452.941406 232.949219 452.976562 233.066406 453 Z M 232.476562 452.964844 " fill-opacity="1" fill-rule="evenodd"/></g></g></g><g clip-path="url(#a4aa3e1aed)"><g clip-path="url(#03042ed9d2)"><g clip-path="url(#e4212b1cff)"><path fill="#231f1d" d="M 278.078125 649.667969 L 280.550781 654.859375 C 287.96875 656.738281 296.429688 651.183594 304.0625 650.171875 C 316.730469 654.3125 327.835938 658.90625 334.171875 671.75 C 337.789062 679.042969 336.902344 687.660156 333.953125 694.984375 C 332.832031 697.777344 331.664062 700.355469 329.808594 702.734375 C 325.195312 707.570312 320.074219 713.125 313.992188 716.046875 C 303.421875 721.167969 293.867188 717.515625 283.515625 713.726562 C 281.105469 712.066406 278.699219 710.347656 276.480469 708.457031 C 260.550781 694.96875 265.527344 680.324219 274.324219 664.332031 C 275.316406 662.523438 278.359375 658.707031 278.769531 656.90625 C 279.117188 655.398438 278.242188 651.355469 278.078125 649.667969 Z M 278.078125 649.667969 " fill-opacity="1" fill-rule="nonzero"/></g></g></g><g clip-path="url(#2b492146bf)"><g clip-path="url(#b833c97408)"><g clip-path="url(#4766a1fb06)"><path fill="#231f1d" d="M 277.636719 648.960938 C 278.207031 648.832031 278.695312 649 279.085938 649.398438 C 279.351562 649.65625 279.6875 649.972656 279.808594 650.339844 C 280.085938 651.214844 280.308594 652.101562 280.53125 652.96875 C 280.585938 653.125 280.847656 654.4375 280.699219 654.527344 C 280.203125 654.886719 278.746094 654.355469 278.304688 653.988281 C 278.046875 653.765625 277.6875 653.097656 277.519531 652.78125 C 277.34375 652.425781 277.277344 651.972656 277.167969 651.585938 C 277.027344 651.054688 276.757812 650.460938 276.722656 649.886719 C 276.71875 649.867188 277.546875 648.984375 277.636719 648.960938 Z M 277.636719 648.960938 " fill-opacity="1" fill-rule="evenodd"/></g></g></g><g clip-path="url(#2d94530e75)"><g clip-path="url(#a3a82a495f)"><g clip-path="url(#4920be871f)"><path fill="#231f1d" d="M 283.515625 713.726562 C 293.867188 717.515625 303.421875 721.167969 313.992188 716.046875 C 320.074219 713.125 325.195312 707.570312 329.808594 702.734375 C 342.46875 725.816406 361.347656 750.789062 369.3125 775.816406 C 371.046875 781.234375 372.070312 786.554688 369.28125 791.816406 C 362.582031 797.433594 300.714844 812.613281 290.066406 812.441406 C 287.390625 812.402344 284.789062 812.191406 282.910156 810.148438 C 272.917969 799.292969 282.234375 729.917969 283.515625 713.726562 Z M 283.515625 713.726562 " fill-opacity="1" fill-rule="nonzero"/></g></g></g><g clip-path="url(#ea9e2b026c)"><g clip-path="url(#2426a4ba80)"><g clip-path="url(#f19e6523c2)"><path fill="#231f1d" d="M 232.84375 453.164062 C 229.59375 429.058594 222.523438 404.40625 216.804688 380.738281 C 214.640625 371.757812 211.25 362.34375 210.804688 353.078125 C 210.574219 348.25 211.105469 343.867188 214.050781 339.867188 C 215.539062 337.851562 218.90625 336.417969 221.300781 336.148438 C 225.027344 335.703125 227.976562 336.1875 231.316406 337.820312 C 236.785156 343.789062 257.734375 439.878906 258.988281 452.902344 C 271.777344 519.054688 290.140625 584.226562 304.0625 650.171875 C 296.429688 651.183594 287.96875 656.738281 280.550781 654.859375 L 278.078125 649.667969 C 260.464844 585.300781 247.148438 518.40625 232.84375 453.164062 Z M 232.84375 453.164062 " fill-opacity="1" fill-rule="nonzero"/></g></g></g><g clip-path="url(#f9a6f1cb00)"><g clip-path="url(#1acfd23a5f)"><g clip-path="url(#ca2ace913e)"><path fill="#231f1d" d="M 232.84375 453.164062 C 200.757812 449.726562 167.914062 450.089844 135.640625 449.097656 C 122.046875 448.683594 107.675781 449.21875 94.292969 446.933594 C 87.527344 445.773438 77.949219 443.472656 73.375 437.882812 C 70.664062 434.585938 69.875 429.941406 70.628906 425.714844 C 72.078125 417.589844 76.625 413.21875 83.199219 408.828125 C 121.246094 383.484375 171.316406 358.726562 212.3125 336.003906 C 277.144531 300.039062 341.316406 262.605469 405.839844 226.050781 C 473.339844 187.101562 541.035156 148.496094 608.921875 110.234375 C 631.324219 97.394531 685.695312 61.828125 706.511719 56.613281 C 714.484375 54.628906 723.394531 55.164062 731.515625 55.621094 C 768.933594 57.675781 806.328125 61.261719 843.71875 63.847656 L 1164.160156 85.730469 L 1335.378906 96.535156 C 1362.144531 98.308594 1391.195312 97.863281 1417.425781 103.097656 C 1422.40625 104.09375 1426.160156 106.792969 1428.90625 111.117188 C 1431.765625 115.636719 1432.664062 121.476562 1431.457031 126.671875 C 1428.476562 139.394531 1406.046875 148.617188 1395.21875 154.660156 L 1248.175781 235.617188 C 1223.84375 249.054688 1196.253906 267.558594 1170.714844 277.144531 C 1180.449219 287.121094 1279.328125 506.460938 1279.507812 516.199219 C 1279.617188 521.804688 1277.082031 527.664062 1272.988281 531.496094 C 1268.757812 535.457031 1261.484375 537.453125 1256.097656 539.578125 C 1159.199219 577.625 1061.347656 613.675781 963.816406 650.050781 C 933.289062 661.441406 886.609375 684.121094 856.921875 690.4375 C 831.054688 695.96875 802.714844 695.929688 776.339844 698.046875 L 634.453125 710.402344 L 487.015625 724.507812 C 465.539062 726.546875 440.285156 731.5625 418.789062 729.851562 C 414.027344 729.464844 410.199219 727.605469 406.269531 725.058594 C 402.117188 718.769531 401.019531 710.574219 400.132812 703.234375 C 396.859375 676.335938 397.4375 648.136719 396.421875 621 L 390.242188 458.746094 C 346.472656 457.109375 302.722656 455.160156 258.988281 452.902344 C 257.734375 439.878906 236.785156 343.789062 231.316406 337.820312 C 227.976562 336.1875 225.027344 335.703125 221.300781 336.148438 C 218.90625 336.421875 215.539062 337.851562 214.050781 339.867188 C 211.105469 343.867188 210.574219 348.25 210.804688 353.078125 C 211.25 362.34375 214.640625 371.757812 216.804688 380.738281 C 222.523438 404.40625 229.59375 429.058594 232.84375 453.164062 Z M 232.84375 453.164062 " fill-opacity="1" fill-rule="nonzero"/></g></g></g></svg>