<svg xmlns="http://www.w3.org/2000/svg" xmlns:xlink="http://www.w3.org/1999/xlink" width="2000" zoomAndPan="magnify" viewBox="0 0 1500 1499.999933" height="2000" preserveAspectRatio="xMidYMid meet" version="1.0"><defs><g/><clipPath id="264f09ead9"><rect x="0" width="979" y="0" height="297"/></clipPath><clipPath id="db96cca022"><path d="M 180 721 L 182 721 L 182 723 L 180 723 Z M 180 721 " clip-rule="nonzero"/></clipPath><clipPath id="80f556d29b"><path d="M 119.722656 604.472656 L 477.453125 542.851562 L 506.226562 709.894531 L 148.496094 771.515625 Z M 119.722656 604.472656 " clip-rule="nonzero"/></clipPath><clipPath id="9fe327b900"><path d="M 119.722656 604.472656 L 477.453125 542.851562 L 506.226562 709.894531 L 148.496094 771.515625 Z M 119.722656 604.472656 " clip-rule="nonzero"/></clipPath><clipPath id="37583b9dc3"><path d="M 180 721 L 188 721 L 188 723 L 180 723 Z M 180 721 " clip-rule="nonzero"/></clipPath><clipPath id="38519db615"><path d="M 119.722656 604.472656 L 477.453125 542.851562 L 506.226562 709.894531 L 148.496094 771.515625 Z M 119.722656 604.472656 " clip-rule="nonzero"/></clipPath><clipPath id="1b4259daee"><path d="M 119.722656 604.472656 L 477.453125 542.851562 L 506.226562 709.894531 L 148.496094 771.515625 Z M 119.722656 604.472656 " clip-rule="nonzero"/></clipPath><clipPath id="a5f9cbaf16"><path d="M 180 735 L 194 735 L 194 740 L 180 740 Z M 180 735 " clip-rule="nonzero"/></clipPath><clipPath id="ba52e3ef28"><path d="M 119.722656 604.472656 L 477.453125 542.851562 L 506.226562 709.894531 L 148.496094 771.515625 Z M 119.722656 604.472656 " clip-rule="nonzero"/></clipPath><clipPath id="334829bc6b"><path d="M 119.722656 604.472656 L 477.453125 542.851562 L 506.226562 709.894531 L 148.496094 771.515625 Z M 119.722656 604.472656 " clip-rule="nonzero"/></clipPath><clipPath id="eba0fe6ee4"><path d="M 166 638 L 180 638 L 180 670 L 166 670 Z M 166 638 " clip-rule="nonzero"/></clipPath><clipPath id="5d8391e9e8"><path d="M 119.722656 604.472656 L 477.453125 542.851562 L 506.226562 709.894531 L 148.496094 771.515625 Z M 119.722656 604.472656 " clip-rule="nonzero"/></clipPath><clipPath id="2372b2d3b4"><path d="M 119.722656 604.472656 L 477.453125 542.851562 L 506.226562 709.894531 L 148.496094 771.515625 Z M 119.722656 604.472656 " clip-rule="nonzero"/></clipPath><clipPath id="ae4e598be3"><path d="M 176 721 L 196 721 L 196 740 L 176 740 Z M 176 721 " clip-rule="nonzero"/></clipPath><clipPath id="c49d84dab7"><path d="M 119.722656 604.472656 L 477.453125 542.851562 L 506.226562 709.894531 L 148.496094 771.515625 Z M 119.722656 604.472656 " clip-rule="nonzero"/></clipPath><clipPath id="2d9c0b1b41"><path d="M 119.722656 604.472656 L 477.453125 542.851562 L 506.226562 709.894531 L 148.496094 771.515625 Z M 119.722656 604.472656 " clip-rule="nonzero"/></clipPath><clipPath id="76c4b6f8d0"><path d="M 180 720 L 181 720 L 181 723 L 180 723 Z M 180 720 " clip-rule="nonzero"/></clipPath><clipPath id="72a3c5bb84"><path d="M 119.722656 604.472656 L 477.453125 542.851562 L 506.226562 709.894531 L 148.496094 771.515625 Z M 119.722656 604.472656 " clip-rule="nonzero"/></clipPath><clipPath id="763de7918b"><path d="M 119.722656 604.472656 L 477.453125 542.851562 L 506.226562 709.894531 L 148.496094 771.515625 Z M 119.722656 604.472656 " clip-rule="nonzero"/></clipPath><clipPath id="86b22fe450"><path d="M 178 735 L 203 735 L 203 764 L 178 764 Z M 178 735 " clip-rule="nonzero"/></clipPath><clipPath id="925029b6bf"><path d="M 119.722656 604.472656 L 477.453125 542.851562 L 506.226562 709.894531 L 148.496094 771.515625 Z M 119.722656 604.472656 " clip-rule="nonzero"/></clipPath><clipPath id="7b31b69574"><path d="M 119.722656 604.472656 L 477.453125 542.851562 L 506.226562 709.894531 L 148.496094 771.515625 Z M 119.722656 604.472656 " clip-rule="nonzero"/></clipPath><clipPath id="24b872233f"><path d="M 167 638 L 188 638 L 188 723 L 167 723 Z M 167 638 " clip-rule="nonzero"/></clipPath><clipPath id="aef833292c"><path d="M 119.722656 604.472656 L 477.453125 542.851562 L 506.226562 709.894531 L 148.496094 771.515625 Z M 119.722656 604.472656 " clip-rule="nonzero"/></clipPath><clipPath id="b472422140"><path d="M 119.722656 604.472656 L 477.453125 542.851562 L 506.226562 709.894531 L 148.496094 771.515625 Z M 119.722656 604.472656 " clip-rule="nonzero"/></clipPath><clipPath id="10c27c2870"><path d="M 129 573 L 488 573 L 488 745 L 129 745 Z M 129 573 " clip-rule="nonzero"/></clipPath><clipPath id="3a7f2ce5f8"><path d="M 119.722656 604.472656 L 477.453125 542.851562 L 506.226562 709.894531 L 148.496094 771.515625 Z M 119.722656 604.472656 " clip-rule="nonzero"/></clipPath><clipPath id="9650deaae8"><path d="M 119.722656 604.472656 L 477.453125 542.851562 L 506.226562 709.894531 L 148.496094 771.515625 Z M 119.722656 604.472656 " clip-rule="nonzero"/></clipPath></defs><g transform="matrix(1, 0, 0, 1, 220, 646)"><g clip-path="url(#264f09ead9)"><g fill="#231f1d" fill-opacity="1"><g transform="translate(0.165854, 238.833142)"><g><path d="M 146.09375 -186.125 L 220.21875 -186.125 L 153.390625 -109.5625 L 221.5625 0 L 150.953125 0 L 112.265625 -68.171875 L 79.8125 -41.65625 L 79.8125 0 L 20.015625 0 L 20.015625 -186.125 L 79.8125 -186.125 L 79.8125 -106.59375 Z M 146.09375 -186.125 "/></g></g></g><g fill="#231f1d" fill-opacity="1"><g transform="translate(225.492227, 238.833142)"><g><path d="M 143.921875 -186.125 C 153.296875 -186.125 161.90625 -184.1875 169.75 -180.3125 C 177.601562 -176.4375 183.828125 -170.976562 188.421875 -163.9375 C 193.023438 -156.90625 195.328125 -149.0625 195.328125 -140.40625 C 195.328125 -117.5 184.957031 -103.070312 164.21875 -97.125 L 164.21875 -96.03125 C 187.84375 -90.625 199.65625 -75.113281 199.65625 -49.5 C 199.65625 -39.769531 197.265625 -31.160156 192.484375 -23.671875 C 187.703125 -16.179688 181.160156 -10.363281 172.859375 -6.21875 C 164.566406 -2.070312 155.460938 0 145.546875 0 L 20.015625 0 L 20.015625 -186.125 Z M 79.8125 -113.625 L 120.921875 -113.625 C 124.890625 -113.625 128.179688 -115.019531 130.796875 -117.8125 C 133.410156 -120.613281 134.71875 -124.085938 134.71875 -128.234375 L 134.71875 -130.9375 C 134.71875 -134.90625 133.363281 -138.285156 130.65625 -141.078125 C 127.957031 -143.878906 124.710938 -145.28125 120.921875 -145.28125 L 79.8125 -145.28125 Z M 79.8125 -43.28125 L 125.25 -43.28125 C 129.21875 -43.28125 132.507812 -44.675781 135.125 -47.46875 C 137.738281 -50.269531 139.046875 -53.742188 139.046875 -57.890625 L 139.046875 -60.59375 C 139.046875 -64.75 137.738281 -68.222656 135.125 -71.015625 C 132.507812 -73.804688 129.21875 -75.203125 125.25 -75.203125 L 79.8125 -75.203125 Z M 79.8125 -43.28125 "/></g></g></g><g fill="#231f1d" fill-opacity="1"><g transform="translate(435.941097, 238.833142)"><g><path d="M 90.09375 -146.09375 C 116.238281 -146.09375 136.207031 -139.957031 150 -127.6875 C 163.800781 -115.425781 170.703125 -96.671875 170.703125 -71.421875 L 170.703125 -62.21875 L 63.578125 -62.21875 C 63.578125 -51.9375 65.875 -44.179688 70.46875 -38.953125 C 75.070312 -33.722656 82.332031 -31.109375 92.25 -31.109375 C 101.269531 -31.109375 107.898438 -33 112.140625 -36.78125 C 116.378906 -40.570312 118.5 -45.625 118.5 -51.9375 L 170.703125 -51.9375 C 170.703125 -34.625 164.117188 -21.097656 150.953125 -11.359375 C 137.785156 -1.617188 118.578125 3.25 93.328125 3.25 C 66.816406 3.25 46.253906 -2.925781 31.640625 -15.28125 C 17.035156 -27.632812 9.734375 -46.347656 9.734375 -71.421875 C 9.734375 -95.953125 16.859375 -114.53125 31.109375 -127.15625 C 45.359375 -139.78125 65.019531 -146.09375 90.09375 -146.09375 Z M 92.25 -111.734375 C 75.300781 -111.734375 65.832031 -103.707031 63.84375 -87.65625 L 116.328125 -87.65625 C 116.328125 -95.050781 114.207031 -100.910156 109.96875 -105.234375 C 105.726562 -109.566406 99.820312 -111.734375 92.25 -111.734375 Z M 92.25 -111.734375 "/></g></g></g><g fill="#231f1d" fill-opacity="1"><g transform="translate(616.364492, 238.833142)"><g><path d="M 90.09375 -146.09375 C 113.53125 -146.09375 132.507812 -141.085938 147.03125 -131.078125 C 161.550781 -121.066406 168.8125 -105.78125 168.8125 -85.21875 L 116.59375 -85.21875 C 116.59375 -101.445312 107.757812 -109.5625 90.09375 -109.5625 C 72.414062 -109.5625 63.578125 -99.375 63.578125 -79 L 63.578125 -63.578125 C 63.578125 -43.378906 72.773438 -33.28125 91.171875 -33.28125 C 109.566406 -33.28125 118.765625 -41.578125 118.765625 -58.171875 L 168.8125 -58.171875 C 168.8125 -37.421875 161.550781 -21.992188 147.03125 -11.890625 C 132.507812 -1.796875 113.53125 3.25 90.09375 3.25 C 65.019531 3.25 45.359375 -3.0625 31.109375 -15.6875 C 16.859375 -28.3125 9.734375 -46.890625 9.734375 -71.421875 C 9.734375 -95.953125 16.859375 -114.53125 31.109375 -127.15625 C 45.359375 -139.78125 65.019531 -146.09375 90.09375 -146.09375 Z M 90.09375 -146.09375 "/></g></g></g><g fill="#231f1d" fill-opacity="1"><g transform="translate(796.787887, 238.833142)"><g><path d="M 86.84375 -146.09375 C 108.664062 -146.09375 126.429688 -142.4375 140.140625 -135.125 C 153.847656 -127.820312 160.703125 -115.96875 160.703125 -99.5625 L 160.703125 -43.828125 C 160.703125 -40.765625 161.421875 -38.238281 162.859375 -36.25 C 164.304688 -34.269531 166.472656 -33.28125 169.359375 -33.28125 L 179.09375 -33.28125 L 179.09375 -2.171875 C 178.550781 -1.804688 177.148438 -1.21875 174.890625 -0.40625 C 172.640625 0.40625 169.441406 1.21875 165.296875 2.03125 C 161.148438 2.84375 156.367188 3.25 150.953125 3.25 C 140.492188 3.25 131.878906 1.671875 125.109375 -1.484375 C 118.347656 -4.640625 113.707031 -9.015625 111.1875 -14.609375 C 104.332031 -9.203125 96.664062 -4.875 88.1875 -1.625 C 79.71875 1.625 69.800781 3.25 58.4375 3.25 C 24.882812 3.25 8.109375 -10.097656 8.109375 -36.796875 C 8.109375 -50.679688 11.847656 -61.273438 19.328125 -68.578125 C 26.816406 -75.878906 37.59375 -80.882812 51.65625 -83.59375 C 65.726562 -86.300781 84.128906 -87.65625 106.859375 -87.65625 L 106.859375 -94.6875 C 106.859375 -100.28125 104.921875 -104.519531 101.046875 -107.40625 C 97.171875 -110.289062 92.164062 -111.734375 86.03125 -111.734375 C 80.4375 -111.734375 75.609375 -110.738281 71.546875 -108.75 C 67.492188 -106.769531 65.46875 -103.613281 65.46875 -99.28125 L 65.46875 -98.203125 L 12.4375 -98.203125 C 12.257812 -99.109375 12.171875 -100.367188 12.171875 -101.984375 C 12.171875 -115.515625 18.617188 -126.25 31.515625 -134.1875 C 44.410156 -142.125 62.851562 -146.09375 86.84375 -146.09375 Z M 106.859375 -62.21875 C 91.523438 -62.21875 80.207031 -60.550781 72.90625 -57.21875 C 65.601562 -53.882812 61.953125 -49.421875 61.953125 -43.828125 C 61.953125 -34.804688 68.082031 -30.296875 80.34375 -30.296875 C 87.382812 -30.296875 93.5625 -32.1875 98.875 -35.96875 C 104.195312 -39.757812 106.859375 -44.453125 106.859375 -50.046875 Z M 106.859375 -62.21875 "/></g></g></g></g></g><g clip-path="url(#db96cca022)"><g clip-path="url(#80f556d29b)"><g clip-path="url(#9fe327b900)"><path fill="#231f1d" d="M 180.378906 721.238281 C 180.398438 721.34375 180.441406 721.453125 180.472656 721.558594 C 180.511719 721.679688 180.554688 721.804688 180.59375 721.929688 C 180.632812 722.042969 180.75 722.5 180.992188 722.367188 C 181.140625 722.289062 181.027344 721.980469 181.003906 721.875 C 180.9375 721.617188 180.824219 721.28125 180.597656 721.125 C 180.523438 721.078125 180.371094 721.183594 180.378906 721.238281 Z M 180.378906 721.238281 " fill-opacity="1" fill-rule="evenodd"/></g></g></g><g clip-path="url(#37583b9dc3)"><g clip-path="url(#38519db615)"><g clip-path="url(#1b4259daee)"><path fill="#231f1d" d="M 180.535156 722.429688 C 180.585938 722.523438 180.734375 722.597656 180.8125 722.636719 C 181.238281 722.835938 181.679688 722.941406 182.144531 722.949219 C 182.789062 722.964844 183.300781 722.691406 183.894531 722.511719 C 184.25 722.402344 184.636719 722.382812 185 722.308594 C 185.332031 722.242188 185.644531 722.121094 185.976562 722.046875 C 186.277344 721.984375 186.582031 721.941406 186.882812 721.847656 C 186.988281 721.816406 187.128906 721.765625 187.113281 721.640625 C 187.082031 721.246094 186.304688 721.480469 186.160156 721.503906 C 185.9375 721.539062 185.710938 721.574219 185.484375 721.605469 C 184.878906 721.703125 184.273438 721.859375 183.664062 721.925781 C 183.148438 721.976562 182.636719 721.953125 182.121094 722.027344 C 181.746094 722.082031 180.523438 722.414062 180.535156 722.429688 Z M 180.535156 722.429688 " fill-opacity="1" fill-rule="evenodd"/></g></g></g><g clip-path="url(#a5f9cbaf16)"><g clip-path="url(#ba52e3ef28)"><g clip-path="url(#334829bc6b)"><path fill="#231f1d" d="M 180.890625 737.675781 C 180.921875 737.867188 180.882812 738.039062 180.992188 738.226562 C 181.417969 738.96875 182.859375 739.761719 183.695312 739.839844 C 183.984375 739.867188 184.324219 739.828125 184.605469 739.792969 C 185.21875 739.722656 185.796875 739.957031 186.417969 739.902344 C 186.785156 739.867188 187.089844 739.691406 187.441406 739.628906 C 187.871094 739.558594 188.328125 739.5625 188.742188 739.433594 C 188.976562 739.359375 189.089844 739.074219 189.269531 739.015625 C 190.125 738.722656 191.117188 738.605469 191.90625 738.160156 C 191.941406 738.140625 191.824219 738.148438 191.789062 738.152344 C 191.761719 738.148438 191.441406 738.089844 191.453125 738.035156 C 191.503906 737.882812 191.636719 737.769531 191.726562 737.636719 C 191.875 737.433594 192.023438 737.234375 192.171875 737.027344 C 192.328125 736.8125 193.054688 735.917969 193.011719 735.675781 C 192.96875 735.402344 192.503906 735.550781 192.324219 735.554688 C 191.515625 735.566406 190.773438 735.65625 189.964844 735.792969 C 189.027344 735.960938 188.101562 735.96875 187.171875 736.101562 C 186.183594 736.234375 185.210938 736.46875 184.226562 736.5625 C 183.367188 736.640625 182.449219 736.3125 181.605469 736.46875 C 181.511719 736.488281 181.480469 736.84375 181.460938 736.921875 C 181.410156 737.128906 181.105469 737.585938 180.910156 737.710938 " fill-opacity="1" fill-rule="evenodd"/></g></g></g><g clip-path="url(#eba0fe6ee4)"><g clip-path="url(#5d8391e9e8)"><g clip-path="url(#2372b2d3b4)"><path fill="#231f1d" d="M 171.460938 669.378906 C 170.882812 669.109375 170.953125 668.226562 171.113281 667.761719 C 171.128906 667.722656 171.152344 667.679688 171.179688 667.636719 C 170.210938 667.339844 169.347656 666.914062 169.035156 666.226562 C 168.90625 665.933594 168.839844 665.636719 168.78125 665.324219 C 168.734375 665.089844 168.648438 664.800781 168.652344 664.558594 C 168.664062 664.308594 168.800781 664.078125 168.773438 663.8125 L 169.003906 663.960938 C 167.960938 661.824219 167.207031 658.730469 167.578125 656.339844 C 167.105469 655.574219 167.398438 654.0625 167.457031 653.445312 C 167.515625 652.730469 167.746094 651.894531 167.648438 651.167969 C 167.585938 650.683594 167.351562 650.164062 167.261719 649.683594 C 166.824219 647.273438 166.144531 643.722656 166.925781 641.316406 C 167.308594 640.132812 168.292969 639.414062 169.375 638.898438 C 169.722656 638.730469 170.097656 638.550781 170.480469 638.484375 C 170.59375 638.464844 170.960938 638.335938 171.0625 638.386719 C 171.070312 638.390625 171.332031 638.464844 171.355469 638.46875 C 171.617188 638.507812 171.820312 638.53125 172.078125 638.648438 C 172.839844 638.996094 173.589844 639.570312 174.28125 640.046875 C 176.550781 641.601562 177.914062 643.601562 178.289062 646.34375 C 178.429688 647.367188 178.519531 648.390625 178.355469 649.410156 C 178.109375 650.902344 177.179688 652.730469 175.9375 653.808594 C 175.945312 653.8125 175.953125 653.820312 175.960938 653.828125 C 177.976562 655.695312 177.914062 656.011719 178.363281 658.628906 C 178.742188 660.824219 179.375 663.113281 179.371094 665.347656 C 179.375 666.226562 179.277344 667.394531 178.699219 668.101562 C 178.683594 668.121094 178.664062 668.140625 178.644531 668.160156 C 178.835938 668.289062 179 668.457031 179.101562 668.679688 C 179.296875 669.105469 178.648438 669.71875 178.265625 669.671875 C 177.28125 669.558594 176.402344 669.160156 175.359375 669.140625 C 174.746094 669.125 174.164062 669.429688 173.53125 669.4375 C 172.824219 669.445312 172.152344 669.238281 171.460938 669.378906 Z M 171.394531 669.394531 C 171.417969 669.390625 171.4375 669.382812 171.460938 669.378906 C 171.488281 669.390625 171.519531 669.402344 171.546875 669.410156 Z M 171.394531 669.394531 " fill-opacity="1" fill-rule="evenodd"/></g></g></g><g clip-path="url(#ae4e598be3)"><g clip-path="url(#c49d84dab7)"><g clip-path="url(#2d9c0b1b41)"><path fill="#ffffff" d="M 180.371094 721.09375 L 180.933594 722.476562 C 182.832031 723.070312 185.109375 721.753906 187.105469 721.601562 C 190.332031 722.859375 193.144531 724.214844 194.601562 727.636719 C 195.433594 729.582031 195.078125 731.804688 194.207031 733.664062 C 193.875 734.371094 193.535156 735.023438 193.019531 735.613281 C 191.753906 736.800781 190.34375 738.167969 188.722656 738.839844 C 185.90625 740.015625 183.480469 738.925781 180.847656 737.792969 C 180.246094 737.328125 179.648438 736.847656 179.101562 736.324219 C 175.164062 732.59375 176.667969 728.867188 179.183594 724.84375 C 179.464844 724.390625 180.3125 723.445312 180.445312 722.980469 C 180.554688 722.59375 180.386719 721.535156 180.371094 721.09375 Z M 180.371094 721.09375 " fill-opacity="1" fill-rule="nonzero"/></g></g></g><g clip-path="url(#76c4b6f8d0)"><g clip-path="url(#72a3c5bb84)"><g clip-path="url(#763de7918b)"><path fill="#231f1d" d="M 180.265625 720.90625 C 180.414062 720.878906 180.539062 720.929688 180.632812 721.039062 C 180.699219 721.109375 180.78125 721.195312 180.808594 721.292969 C 180.867188 721.523438 180.914062 721.757812 180.957031 721.984375 C 180.96875 722.027344 181.019531 722.371094 180.980469 722.390625 C 180.84375 722.476562 180.472656 722.320312 180.363281 722.21875 C 180.300781 722.15625 180.21875 721.976562 180.179688 721.894531 C 180.136719 721.800781 180.128906 721.679688 180.105469 721.578125 C 180.078125 721.4375 180.015625 721.28125 180.015625 721.132812 C 180.011719 721.125 180.242188 720.910156 180.265625 720.90625 Z M 180.265625 720.90625 " fill-opacity="1" fill-rule="evenodd"/></g></g></g><g clip-path="url(#86b22fe450)"><g clip-path="url(#925029b6bf)"><g clip-path="url(#7b31b69574)"><path fill="#231f1d" d="M 180.847656 737.792969 C 183.480469 738.925781 185.90625 740.015625 188.722656 738.839844 C 190.34375 738.167969 191.753906 736.800781 193.019531 735.613281 C 195.96875 741.789062 200.503906 748.542969 202.207031 755.152344 C 202.578125 756.582031 202.765625 757.976562 201.96875 759.300781 C 200.148438 760.664062 183.875 763.703125 181.113281 763.503906 C 180.421875 763.453125 179.75 763.359375 179.289062 762.804688 C 176.855469 759.839844 180.28125 741.976562 180.847656 737.792969 Z M 180.847656 737.792969 " fill-opacity="1" fill-rule="nonzero"/></g></g></g><g clip-path="url(#24b872233f)"><g clip-path="url(#aef833292c)"><g clip-path="url(#b472422140)"><path fill="#231f1d" d="M 171.488281 669.449219 C 170.996094 663.148438 169.519531 656.648438 168.378906 650.425781 C 167.949219 648.0625 167.207031 645.570312 167.222656 643.160156 C 167.234375 641.90625 167.4375 640.777344 168.257812 639.78125 C 168.671875 639.28125 169.566406 638.957031 170.195312 638.921875 C 171.167969 638.859375 171.925781 639.027344 172.769531 639.5 C 174.101562 641.128906 178.140625 666.367188 178.277344 669.761719 C 180.632812 687.113281 184.449219 704.289062 187.105469 721.601562 C 185.109375 721.753906 182.832031 723.070312 180.933594 722.476562 L 180.371094 721.09375 C 176.734375 704.136719 174.25 686.585938 171.488281 669.449219 Z M 171.488281 669.449219 " fill-opacity="1" fill-rule="nonzero"/></g></g></g><g clip-path="url(#10c27c2870)"><g clip-path="url(#3a7f2ce5f8)"><g clip-path="url(#9650deaae8)"><path fill="#231f1d" d="M 171.488281 669.449219 C 163.210938 668.09375 154.683594 667.707031 146.324219 666.984375 C 142.804688 666.679688 139.070312 666.609375 135.628906 665.820312 C 133.890625 665.421875 131.4375 664.683594 130.332031 663.167969 C 129.679688 662.273438 129.539062 661.054688 129.796875 659.96875 C 130.292969 657.882812 131.535156 656.816406 133.304688 655.773438 C 143.546875 649.75 156.894531 644.054688 167.863281 638.753906 C 185.207031 630.363281 202.402344 621.582031 219.675781 613.035156 C 237.757812 603.910156 255.882812 594.878906 274.050781 585.9375 C 280.050781 582.929688 294.675781 574.492188 300.152344 573.445312 C 302.25 573.042969 304.554688 573.3125 306.652344 573.550781 C 316.332031 574.625 325.984375 576.097656 335.648438 577.316406 L 418.472656 587.648438 L 462.742188 592.941406 C 469.660156 593.789062 477.203125 594.097656 483.933594 595.835938 C 485.210938 596.167969 486.148438 596.921875 486.796875 598.085938 C 487.472656 599.300781 487.621094 600.828125 487.234375 602.15625 C 486.273438 605.414062 480.320312 607.480469 477.421875 608.894531 L 438.09375 627.761719 C 431.585938 630.894531 424.15625 635.292969 417.390625 637.410156 C 419.773438 640.140625 442.242188 698.488281 442.144531 701.019531 C 442.09375 702.472656 441.347656 703.957031 440.230469 704.894531 C 439.078125 705.859375 437.160156 706.269531 435.730469 706.742188 C 410.035156 715.207031 384.125 723.140625 358.289062 731.160156 C 350.203125 733.671875 337.761719 738.878906 329.96875 740.085938 C 323.175781 741.144531 315.824219 740.722656 308.949219 740.886719 L 271.953125 742.03125 L 233.492188 743.546875 C 227.890625 743.765625 221.265625 744.699219 215.714844 743.945312 C 214.484375 743.773438 213.515625 743.238281 212.535156 742.519531 C 211.546875 740.828125 211.382812 738.683594 211.257812 736.765625 C 210.800781 729.738281 211.359375 722.429688 211.492188 715.375 L 212.246094 673.1875 C 200.914062 672.125 189.589844 670.984375 178.277344 669.761719 C 178.140625 666.367188 174.101562 641.128906 172.769531 639.5 C 171.925781 639.027344 171.167969 638.859375 170.195312 638.921875 C 169.566406 638.957031 168.671875 639.28125 168.257812 639.78125 C 167.4375 640.777344 167.234375 641.90625 167.222656 643.160156 C 167.207031 645.570312 167.949219 648.0625 168.378906 650.425781 C 169.519531 656.648438 170.996094 663.148438 171.488281 669.449219 Z M 171.488281 669.449219 " fill-opacity="1" fill-rule="nonzero"/></g></g></g></svg>